<svg xmlns="http://www.w3.org/2000/svg" width="20.5" height="20.59" viewBox="0 0 20.5 20.59">
    <path id="prefix___003-home" d="M20.073 9.126L10.183 0 .293 9.126a.342.342 0 0 0-.018.485.347.347 0 0 0 .487.018l1.145-1.057V20h16.551V8.572L19.6 9.628a.347.347 0 0 0 .487-.018.341.341 0 0 0-.014-.484zM8.114 19.315v-5.483a2.069 2.069 0 0 1 4.138 0v5.483zm9.655 0h-4.828v-5.483a2.759 2.759 0 0 0-5.517 0v5.483H2.6V7.936l7.586-7 7.586 7z" data-name="003-home" transform="translate(.067 .34)" style="fill:#22a19f;stroke:#22a19f;stroke-width:.5px"/>
</svg>
