<svg xmlns="http://www.w3.org/2000/svg" width="19.537" height="20.5" viewBox="0 0 19.537 20.5">
    <path id="prefix__search" d="M19.879 19.361l-5.536-5.835A7.948 7.948 0 0 0 8.807 0 7.886 7.886 0 0 0 .983 7.93a7.886 7.886 0 0 0 7.824 7.93 7.725 7.725 0 0 0 4.986-1.825l5.549 5.849a.369.369 0 0 0 .527.011.382.382 0 0 0 .01-.534zM8.807 15.1a7.135 7.135 0 0 1-7.079-7.17A7.135 7.135 0 0 1 8.807.755a7.135 7.135 0 0 1 7.078 7.175 7.135 7.135 0 0 1-7.078 7.17z" transform="translate(-.733 .25)" style="fill:#6d6e71;stroke:#6d6e71;stroke-width:.5px"/>
</svg>
