<svg xmlns="http://www.w3.org/2000/svg" width="124.642" height="88" viewBox="0 0 124.642 88">
    <defs>
        <style>
            .prefix__cls-10,.prefix__cls-2{opacity:.1}.prefix__cls-3{fill:#e6e7e8}.prefix__cls-4{fill:#b2b2b2}.prefix__cls-8{fill:#bcbec0}.prefix__cls-10{fill:#fff}
        </style>
    </defs>
    <g id="prefix__Grupo_1876" data-name="Grupo 1876" transform="translate(-109.835 -478.945)">
        <path id="prefix__Caminho_1022" d="M500.944 436.866c-2.571 3.68-11.816 1.731-11.816 1.731l-7.164-6.7-.964-.908 1.617-3.435s.514.141 1.4.393c4.628 1.341 19.097 5.826 16.927 8.919z" data-name="Caminho 1022" transform="translate(-314.49 118.595)" style="fill:#efb7b9"/>
        <path id="prefix__Caminho_1023" d="M484.009 427.943a15.084 15.084 0 0 1-2.044 3.95l-.964-.908 1.617-3.435s.519.141 1.391.393z" class="prefix__cls-2" data-name="Caminho 1023" transform="translate(-314.474 118.652)"/>
        <path id="prefix__Caminho_1027" d="M421.424 380.89s-1.335 2.733-.514 2.548.514-2.548.514-2.548z" class="prefix__cls-2" data-name="Caminho 1027" transform="translate(-269.61 153.36)"/>
        <path id="prefix__Caminho_1092" d="M839.262 300.723s-9.771-.589-8.63 6.267a1.672 1.672 0 0 0 .869 1.761s.018-.514 1.005-.337a4.5 4.5 0 0 0 1.062.052 2.2 2.2 0 0 0 1.286-.535s2.751-1.137 3.821-5.631c0 0 .789-.98.759-1.232l-1.651.7a2.967 2.967 0 0 1 .121 2.181s-.054-2.137-.37-2.088c-.064 0-.859.414-.859.414s.972 2.075.239 3.582c0 0 .278-2.556-.543-3.433l-1.149.671a5.13 5.13 0 0 1 .365 3.891s.2-2.682-.609-3.726l-1.052.823s1.065 2.111.417 3.561c0 0-.085-3.122-.645-3.358a6.45 6.45 0 0 0-1.062 1.147s.73 1.543.278 2.343c0 0-.278-2.08-.514-2.091a6.922 6.922 0 0 0-1.015 2.315 5.019 5.019 0 0 1 .792-2.453 2.766 2.766 0 0 0-1.407.728s.144-.975 1.633-1.059a6.42 6.42 0 0 1 .962-1.111 6.029 6.029 0 0 0-2.379.275 2.671 2.671 0 0 1 2.649-.5l1.029-.849a8.876 8.876 0 0 0-2.777.028s.951-.813 3.057-.221l1.131-.676a10.307 10.307 0 0 0-2.654-.229 4.076 4.076 0 0 1 2.986.046l.81-.363s-1.219-.239-1.576-.278-.375-.136-.375-.136a4.214 4.214 0 0 1 2.289.257 10.377 10.377 0 0 0 1.707-.736z" class="prefix__cls-3" data-name="Caminho 1092" transform="translate(-637.699 227.587)"/>
        <path id="prefix__Caminho_1068" d="M330.96 338.022l19.8-3.222v18.746l-18.813-.985z" class="prefix__cls-4" data-name="Caminho 1068" transform="translate(-178.515 201.647)"/>
        <path id="prefix__Caminho_1069" d="M330.96 338.022l19.8-3.222v18.746l-18.813-.985z" data-name="Caminho 1069" transform="translate(-178.515 201.647)" style="opacity:.05"/>
        <path id="prefix__Caminho_1070" d="M407.96 334.8l23.745 1.777-1.314 16.313-22.431.656z" class="prefix__cls-4" data-name="Caminho 1070" transform="translate(-235.76 201.647)"/>
        <path id="prefix__Caminho_1071" d="M407.96 334.8l23.745 1.777-1.314 16.313-22.431.656z" class="prefix__cls-2" data-name="Caminho 1071" transform="translate(-235.76 201.647)"/>
        <path id="prefix__Caminho_1072" d="M415.26 312.55l-7.3 5.721 23.745 1.777 3.88-5.855z" data-name="Caminho 1072" transform="translate(-235.765 218.279)" style="fill:#b6b8ba"/>
        <path id="prefix__Caminho_1073" d="M303.08 316.76l17.825-2.17 9.144 5.2-19.8 3.222z" data-name="Caminho 1073" transform="translate(-157.795 216.758)" style="fill:#afb1b3"/>
        <path id="prefix__Caminho_1074" d="M355.1 348.976v25.63l-9.275-.951-4.035-.411-1.229-.129-4.032-.414-5.57-.571v-24.8l19.8 1.347z" class="prefix__cls-8" data-name="Caminho 1074" transform="translate(-178.519 192.339)"/>
        <path id="prefix__Caminho_1075" d="M444.244 341.71v24.99l-7.434 1.427-3.615.694-8.355 1.6V344.8z" class="prefix__cls-4" data-name="Caminho 1075" transform="translate(-248.303 196.514)"/>
        <path id="prefix__Caminho_1076" d="M444.244 341.71v24.99l-7.434 1.427-3.615.694-8.355 1.6V344.8z" data-name="Caminho 1076" transform="translate(-248.303 196.514)" style="fill:#414042;opacity:.05"/>
        <path id="prefix__Caminho_1077" d="M303.08 352.725l7.169-5.395 24.141 1.646-3.554 5.986z" class="prefix__cls-8" data-name="Caminho 1077" transform="translate(-157.799 192.409)"/>
        <path id="prefix__Caminho_1078" d="M303.08 352.725l7.169-5.395 24.141 1.646-3.554 5.986z" class="prefix__cls-10" data-name="Caminho 1078" transform="translate(-157.799 192.409)"/>
        <path id="prefix__Caminho_1079" d="M444.244 341.71l-19.4 3.091 6.315 5.657 20.785-3.487z" class="prefix__cls-8" data-name="Caminho 1079" transform="translate(-248.313 196.586)"/>
        <path id="prefix__Caminho_1080" d="M444.244 341.71l-19.4 3.091 6.315 5.657 20.785-3.487z" class="prefix__cls-10" data-name="Caminho 1080" transform="translate(-248.313 196.586)"/>
        <path id="prefix__Caminho_1081" d="M460.945 428.57l-3.616.694v-5.341l3.387-.854z" class="prefix__cls-10" data-name="Caminho 1081" transform="translate(-272.434 136.075)"/>
        <path id="prefix__Caminho_1082" d="M377.115 435.96v3.533l-4.035-.411v-3.122z" class="prefix__cls-10" data-name="Caminho 1082" transform="translate(-209.812 126.5)"/>
        <path id="prefix__Caminho_1083" d="M356.652 440.29v1.88l-4.032-.414v-1.466z" class="prefix__cls-10" data-name="Caminho 1083" transform="translate(-194.605 123.283)"/>
        <path id="prefix__Caminho_1091" d="M723.8 167.383s-9.771-.589-8.63 6.267a1.672 1.672 0 0 0 .869 1.761s.018-.514 1-.337a4.5 4.5 0 0 0 1.062.051 2.2 2.2 0 0 0 1.3-.537s2.749-1.134 3.819-5.629c0 0 .792-.982.771-1.234l-1.651.707a2.959 2.959 0 0 1 .118 2.181s-.051-2.137-.37-2.088c-.064 0-.856.414-.856.414s.969 2.073.237 3.582c0 0 .278-2.556-.54-3.433l-1.162.679a5.13 5.13 0 0 1 .365 3.891s.2-2.682-.609-3.726l-1.054.82s1.067 2.114.417 3.564c0 0-.085-3.122-.645-3.358a6.358 6.358 0 0 0-1.059 1.147s.728 1.543.275 2.343c0 0-.278-2.08-.514-2.091a6.921 6.921 0 0 0-1.013 2.314 5 5 0 0 1 .789-2.453 2.755 2.755 0 0 0-1.4.728s.141-.975 1.63-1.059a7.035 7.035 0 0 1 .962-1.111 6.029 6.029 0 0 0-2.379.275 2.694 2.694 0 0 1 2.651-.514l1.029-.849a8.873 8.873 0 0 0-2.777.028s.952-.813 3.058-.221l1.131-.676a10.158 10.158 0 0 0-2.651-.229 4.068 4.068 0 0 1 2.983.046l.81-.363s-1.219-.239-1.574-.278-.375-.136-.375-.136a4.207 4.207 0 0 1 2.286.257 10.086 10.086 0 0 0 1.697-.733z" class="prefix__cls-8" data-name="Caminho 1091" transform="translate(-546.986 326.763)"/>
        <path id="prefix__Caminho_1093" d="M614.343 249.169s2.25-9.538-4.7-9.571a1.67 1.67 0 0 0-1.882.555s.5.105.159 1.047a4.578 4.578 0 0 0-.231 1.029 2.209 2.209 0 0 0 .306 1.371s.651 2.906 4.886 4.726c0 0 .833.946 1.085.957l-.411-1.746a2.954 2.954 0 0 1-2.17-.257s2.116.311 2.119 0c0-.064-.257-.915-.257-.915s-2.209.6-3.572-.378c0 0 2.471.71 3.477.054l-.463-1.265s-2.314.753-3.9-.3c0 0 2.61.653 3.777.036l-.63-1.178s-2.263.689-3.582-.2c0 0 3.086.447 3.42-.062a6.387 6.387 0 0 0-.949-1.242s-1.635.458-2.355-.126c0 0 2.1.08 2.145-.141a6.934 6.934 0 0 0-2.116-1.4 5.041 5.041 0 0 1 2.286 1.2 2.775 2.775 0 0 0-.478-1.509s.936.309.771 1.8a6.405 6.405 0 0 1 .928 1.137 6.046 6.046 0 0 0 .134-2.391 2.673 2.673 0 0 1 .044 2.7l.658 1.17a8.534 8.534 0 0 0 .445-2.741s.64 1.075-.3 3.05l.476 1.232a10.3 10.3 0 0 0 .676-2.571 4.065 4.065 0 0 1-.555 2.934l.221.859s.442-1.16.54-1.5.2-.347.2-.347a4.212 4.212 0 0 1-.64 2.211 10.207 10.207 0 0 0 .438 1.772z" class="prefix__cls-3" data-name="Caminho 1093" transform="translate(-472.037 273.109)"/>
        <path id="prefix__Caminho_1094" d="M518.274 282.594s-7.848-5.871-10.654.489a1.673 1.673 0 0 0-.242 1.949s.293-.414 1.029.273a4.5 4.5 0 0 0 .859.627 2.206 2.206 0 0 0 1.381.257s2.921.563 6.285-2.6c0 0 1.2-.386 1.314-.612l-1.772-.311a2.971 2.971 0 0 1-1.1 1.887s1.129-1.815.836-1.947c-.059-.028-.944-.129-.944-.129s-.329 2.268-1.769 3.124c0 0 1.638-1.983 1.435-3.165l-1.345-.072s-.229 2.415-1.833 3.453c0 0 1.638-2.132 1.543-3.448l-1.332.108s-.27 2.348-1.61 3.2c0 0 1.643-2.654 1.306-3.158a6.463 6.463 0 0 0-1.517.373s-.234 1.682-1.057 2.109c0 0 .913-1.89.728-2.021a6.912 6.912 0 0 0-2.124 1.381 5.022 5.022 0 0 1 2.011-1.615 2.769 2.769 0 0 0-1.574-.165s.653-.735 1.944.013a6.491 6.491 0 0 1 1.414-.4 6.017 6.017 0 0 0-2.139-1.077 2.677 2.677 0 0 1 2.492 1.029l1.335-.136a8.808 8.808 0 0 0-2.335-1.5s1.242-.157 2.674 1.494l1.317.059a10.264 10.264 0 0 0-2.088-1.651 4.066 4.066 0 0 1 2.466 1.679l.877.141s-.887-.869-1.165-1.1-.239-.321-.239-.321a4.226 4.226 0 0 1 1.772 1.471 10.4 10.4 0 0 0 1.821.312z" class="prefix__cls-3" data-name="Caminho 1094" transform="translate(-397.321 242.903)"/>
        <path id="prefix__Caminho_1095" d="M619.884 70.481s-7.848-5.873-10.654.489a1.673 1.673 0 0 0-.242 1.949s.293-.414 1.029.273a4.575 4.575 0 0 0 .861.625 2.2 2.2 0 0 0 1.381.257s2.921.563 6.285-2.6c0 0 1.2-.383 1.311-.612l-1.772-.306a2.958 2.958 0 0 1-1.1 1.887s1.131-1.815.838-1.947c-.059-.028-.944-.129-.944-.129s-.339 2.273-1.779 3.124c0 0 1.635-1.983 1.435-3.165l-1.345-.072s-.231 2.415-1.833 3.451c0 0 1.638-2.132 1.543-3.448l-1.329.108s-.273 2.35-1.612 3.2c0 0 1.646-2.654 1.309-3.158a6.466 6.466 0 0 0-1.517.373s-.234 1.682-1.057 2.109c0 0 .913-1.89.728-2.024a6.938 6.938 0 0 0-2.124 1.383 5 5 0 0 1 2.011-1.615 2.751 2.751 0 0 0-1.576-.165s.656-.735 1.947.013a6.351 6.351 0 0 1 1.414-.4A6.051 6.051 0 0 0 610.953 69a2.681 2.681 0 0 1 2.489 1.029l1.335-.136a8.817 8.817 0 0 0-2.335-1.5s1.242-.154 2.677 1.5l1.317.057a10.157 10.157 0 0 0-2.091-1.648 4.067 4.067 0 0 1 2.469 1.679l.874.141s-.89-.859-1.167-1.08-.239-.319-.239-.319a4.218 4.218 0 0 1 1.772 1.471 11.1 11.1 0 0 0 1.83.287z" class="prefix__cls-3" data-name="Caminho 1095" transform="translate(-472.036 428.324)"/>
        <path id="prefix__Caminho_1096" d="M738.7 87.812s-3.137-9.286-9.054-5.637a1.69 1.69 0 0 0-1.3 1.468s.476-.175.687.8a4.625 4.625 0 0 0 .352 1.005 2.227 2.227 0 0 0 .987 1s2.088 2.121 6.655 1.419c0 0 1.206.365 1.427.239l-1.286-1.263a2.958 2.958 0 0 1-1.975.931s1.962-.854 1.8-1.129c-.033-.054-.7-.638-.7-.638s-1.558 1.679-3.23 1.569c0 0 2.471-.7 2.975-1.8l-1.065-.82a5.124 5.124 0 0 1-3.469 1.8s2.571-.825 3.222-1.967l-1.157-.666s-1.543 1.782-3.142 1.725c0 0 2.859-1.252 2.867-1.859a6.428 6.428 0 0 0-1.461-.553s-1.147 1.252-2.057 1.139c0 0 1.821-1.041 1.744-1.255a6.9 6.9 0 0 0-2.533-.064 5.012 5.012 0 0 1 2.571-.193 2.775 2.775 0 0 0-1.206-1.029s.957-.234 1.6 1.113a6.477 6.477 0 0 1 1.389.473 6.043 6.043 0 0 0-1.149-2.1 2.678 2.678 0 0 1 1.463 2.268l1.178.643a8.679 8.679 0 0 0-1.072-2.571s1.113.576 1.355 2.749l1.054.795a10.224 10.224 0 0 0-.787-2.546 4.071 4.071 0 0 1 1.08 2.785l.64.612s-.237-1.219-.334-1.563-.018-.368-.018-.368a4.241 4.241 0 0 1 .625 2.217 10.247 10.247 0 0 0 1.324 1.271z" class="prefix__cls-3" data-name="Caminho 1096" transform="translate(-544.621 399.716)"/>
        <path id="prefix__Caminho_1097" d="M663.034 108.151s-9.746-1.085-8.941 5.829a1.669 1.669 0 0 0 .771 1.8s.044-.514 1.029-.283a4.732 4.732 0 0 0 1.059.105 2.211 2.211 0 0 0 1.324-.471s2.805-1 4.114-5.431c0 0 .838-.939.82-1.193l-1.684.622a2.868 2.868 0 0 1 0 2.183s.054-2.137-.257-2.1c-.064 0-.877.37-.877.37s.864 2.121.057 3.6c0 0 .406-2.541-.368-3.456l-1.2.617s1.029 2.2.167 3.906c0 0 .334-2.669-.419-3.752l-1.093.771s.957 2.163.234 3.579c0 0 .075-3.122-.473-3.387a6.687 6.687 0 0 0-1.119 1.09s.651 1.569.159 2.353c0 0-.172-2.091-.4-2.111a6.915 6.915 0 0 0-1.131 2.268 5.006 5.006 0 0 1 .915-2.412 2.767 2.767 0 0 0-1.44.656s.19-.964 1.682-.975c0 0 .81-1.005 1.029-1.059a6.046 6.046 0 0 0-2.391.154 2.668 2.668 0 0 1 2.672-.368l1.083-.795a8.34 8.34 0 0 0-2.785-.139s.993-.771 3.065-.064l1.165-.62a10.239 10.239 0 0 0-2.638-.363 4.039 4.039 0 0 1 2.978.2l.828-.321s-1.206-.3-1.561-.357-.368-.154-.368-.154a4.23 4.23 0 0 1 2.273.37 10.519 10.519 0 0 0 1.721-.662z" class="prefix__cls-3" data-name="Caminho 1097" transform="translate(-506.507 370.855)"/>
        <path id="prefix__Caminho_1098" d="M994.649 402.321s-9.741-1.085-8.936 5.822a1.669 1.669 0 0 0 .771 1.8s.044-.514 1.029-.285a4.451 4.451 0 0 0 1.059.105 2.194 2.194 0 0 0 1.324-.471s2.805-1 4.1-5.428c0 0 .838-.941.82-1.193l-1.684.62a2.875 2.875 0 0 1 0 2.186s.054-2.139-.257-2.1c-.064 0-.877.368-.877.368s.864 2.121.057 3.6c0 0 .406-2.538-.368-3.456l-1.2.62s1.029 2.2.17 3.906c0 0 .332-2.669-.422-3.754l-1.093.771s.957 2.163.234 3.577c0 0 .075-3.122-.473-3.384a6.79 6.79 0 0 0-1.119 1.09s.653 1.569.159 2.353c0 0-.172-2.091-.4-2.111a6.915 6.915 0 0 0-1.132 2.268 5.007 5.007 0 0 1 .915-2.412 2.744 2.744 0 0 0-1.44.656s.19-.967 1.682-.977c0 0 .813-1.005 1.029-1.057a6.025 6.025 0 0 0-2.391.152 2.675 2.675 0 0 1 2.674-.365l1.08-.795a8.593 8.593 0 0 0-2.774-.113s.992-.771 3.065-.067l1.165-.617a10.238 10.238 0 0 0-2.638-.363 4.039 4.039 0 0 1 2.978.2l.828-.324s-1.206-.3-1.561-.355-.368-.154-.368-.154a4.215 4.215 0 0 1 2.273.368 10.074 10.074 0 0 0 1.721-.681z" class="prefix__cls-3" data-name="Caminho 1098" transform="translate(-760.342 151.225)"/>
        <path id="prefix__Caminho_1100" d="M917.824 132.734s-7.848-5.871-10.654.489a1.673 1.673 0 0 0-.242 1.949s.293-.414 1.028.273a4.5 4.5 0 0 0 .859.627 2.209 2.209 0 0 0 1.381.257s2.921.563 6.287-2.6c0 0 1.2-.386 1.311-.612l-1.767-.319a2.971 2.971 0 0 1-1.1 1.887s1.129-1.815.836-1.947c-.059-.028-.941-.129-.941-.129s-.332 2.268-1.772 3.124c0 0 1.638-1.983 1.435-3.165l-1.345-.072s-.229 2.415-1.833 3.453c0 0 1.641-2.132 1.543-3.448l-1.332.108s-.257 2.348-1.61 3.2c0 0 1.646-2.654 1.306-3.158a6.464 6.464 0 0 0-1.517.373s-.232 1.682-1.054 2.109c0 0 .91-1.89.725-2.021a6.912 6.912 0 0 0-2.124 1.381 5.023 5.023 0 0 1 2.011-1.615 2.77 2.77 0 0 0-1.574-.165s.656-.735 1.947.013a6.465 6.465 0 0 1 1.412-.4 6.017 6.017 0 0 0-2.139-1.077 2.677 2.677 0 0 1 2.492 1.029l1.335-.136a8.761 8.761 0 0 0-2.335-1.5s1.242-.157 2.674 1.494l1.319.059a10.311 10.311 0 0 0-2.091-1.651 4.059 4.059 0 0 1 2.466 1.679l.877.141s-.887-.869-1.165-1.1-.237-.3-.237-.3a4.227 4.227 0 0 1 1.769 1.471 10.328 10.328 0 0 0 1.819.299z" class="prefix__cls-3" data-name="Caminho 1100" transform="translate(-694.339 354.383)"/>
        <path id="prefix__Caminho_1101" d="M944.17 285.131s-2.705-9.419-8.789-6.038a1.671 1.671 0 0 0-1.371 1.407s.483-.152.651.833a4.559 4.559 0 0 0 .308 1.029 2.21 2.21 0 0 0 .941 1.049s1.99 2.211 6.583 1.718c0 0 1.188.417 1.414.3l-1.216-1.322a2.956 2.956 0 0 1-2.013.843s2-.771 1.841-1.047c-.031-.057-.674-.671-.674-.671s-1.63 1.61-3.3 1.422c0 0 2.5-.591 3.052-1.656l-1.029-.869a5.138 5.138 0 0 1-3.546 1.646s2.592-.712 3.307-1.821l-1.126-.717s-1.633 1.71-3.217 1.581c0 0 2.913-1.124 2.949-1.728a6.42 6.42 0 0 0-1.437-.617s-1.2 1.2-2.114 1.044c0 0 1.867-.959 1.8-1.175a6.944 6.944 0 0 0-2.528-.18 5.016 5.016 0 0 1 2.571-.075 2.759 2.759 0 0 0-1.157-1.08s.967-.193 1.543 1.183a6.419 6.419 0 0 1 1.365.535 6.015 6.015 0 0 0-1.054-2.15 2.671 2.671 0 0 1 1.36 2.33l1.147.7a8.551 8.551 0 0 0-.957-2.607s1.085.625 1.232 2.805l1.029.841a10.2 10.2 0 0 0-.671-2.571 4.063 4.063 0 0 1 .954 2.829l.612.643s-.18-1.229-.257-1.579 0-.4 0-.4a4.215 4.215 0 0 1 .527 2.242 10.2 10.2 0 0 0 1.27 1.323z" class="prefix__cls-3" data-name="Caminho 1101" transform="translate(-714.622 244.213)"/>
        <path id="prefix__Caminho_1103" d="M841.546 208.048s-5-8.432-10.029-3.633a1.672 1.672 0 0 0-.972 1.707s.429-.273.841.64a4.444 4.444 0 0 0 .553.91 2.183 2.183 0 0 0 1.173.771s2.481 1.641 6.8 0c0 0 1.255.105 1.445-.062l-1.509-.972a2.956 2.956 0 0 1-1.738 1.322s1.741-1.242 1.522-1.476c-.046-.049-.823-.481-.823-.481s-1.175 1.967-2.829 2.206c0 0 2.273-1.2 2.538-2.371l-1.214-.571s-1.139 2.142-3.019 2.484c0 0 2.332-1.34 2.744-2.592l-1.27-.411s-1.152 2.057-2.715 2.34c0 0 2.536-1.821 2.417-2.415a6.35 6.35 0 0 0-1.543-.237s-.862 1.463-1.785 1.543c0 0 1.566-1.394 1.448-1.589a6.923 6.923 0 0 0-2.492.463 5.02 5.02 0 0 1 2.476-.72 2.765 2.765 0 0 0-1.391-.756s.887-.429 1.8.756a6.514 6.514 0 0 1 1.458.175 6.151 6.151 0 0 0-1.561-1.815s1.2.139 1.9 1.913l1.286.386a8.548 8.548 0 0 0-1.581-2.283s1.209.332 1.9 2.407l1.2.558a10.332 10.332 0 0 0-1.286-2.314 4.067 4.067 0 0 1 1.635 2.5l.753.468s-.483-1.144-.653-1.461-.1-.386-.1-.386a4.225 4.225 0 0 1 1.075 2.034 9.956 9.956 0 0 0 1.546.962z" class="prefix__cls-8" data-name="Caminho 1103" transform="translate(-637.694 300.311)"/>
        <path id="prefix__Caminho_1104" d="M726.513 267.061s.257-9.8-6.549-8.416a1.676 1.676 0 0 0-1.733.928s.514 0 .37.99a4.517 4.517 0 0 0-.015 1.065 2.2 2.2 0 0 0 .579 1.286s1.227 2.71 5.755 3.631c0 0 1.005.759 1.258.717l-.771-1.625a2.968 2.968 0 0 1-2.175.193s2.134-.126 2.075-.44c0-.064-.442-.846-.442-.846s-2.042 1.041-3.572.357c0 0 2.572.193 3.412-.653l-.717-1.139a5.137 5.137 0 0 1-3.878.494s2.687.108 3.705-.733l-.856-1.029s-2.075 1.137-3.546.535c0 0 3.117-.188 3.343-.756a6.667 6.667 0 0 0-1.183-1.029s-1.507.771-2.33.355c0 0 2.057-.345 2.07-.573a6.9 6.9 0 0 0-2.355-.936 5.006 5.006 0 0 1 2.481.71 2.764 2.764 0 0 0-.771-1.381s.98.111 1.113 1.594a6.389 6.389 0 0 1 1.142.926 6.013 6.013 0 0 0-.355-2.368 2.668 2.668 0 0 1 .591 2.631l.882 1.013a8.61 8.61 0 0 0-.121-2.775s.843.923.324 3.047l.712 1.108a10.253 10.253 0 0 0 .141-2.659 4.081 4.081 0 0 1 .051 2.985l.391.8s.2-1.227.224-1.584.123-.381.123-.381a4.222 4.222 0 0 1-.177 2.3 9.8 9.8 0 0 0 .804 1.658z" class="prefix__cls-8" data-name="Caminho 1104" transform="translate(-554.216 258.973)"/>
        <ellipse id="prefix__Elipse_126" cx="6.925" cy="1.17" data-name="Elipse 126" rx="6.925" ry="1.17" transform="translate(118.394 562.84)" style="opacity:.297;fill:#b2b2b2"/>
        <path id="prefix__Caminho_1106" d="M170.29 777.705s3.947-.121 5.143-.97 6.076-1.859 6.372-.5 5.935 6.76 1.476 6.8-10.36-.694-11.548-1.419-1.443-3.911-1.443-3.911z" data-name="Caminho 1106" transform="translate(-49.62 -219.134)" style="fill:#6d6e71;opacity:.8"/>
        <path id="prefix__Caminho_1107" d="M183.356 788.71c-4.459.036-10.36-.694-11.548-1.419-.905-.55-1.265-2.528-1.386-3.441h-.131s.257 3.186 1.437 3.909 7.089 1.456 11.548 1.419c1.286 0 1.731-.468 1.707-1.147-.183.414-.671.669-1.627.679z" data-name="Caminho 1107" transform="translate(-49.621 -225.283)" style="opacity:.2"/>
    </g>
</svg>
